<svg data-v-423bf9ae="" xmlns="http://www.w3.org/2000/svg" viewBox="0 0 465 91" class="iconLeft"><!----><!----><!----><g data-v-423bf9ae="" id="f6f5aaff-f51b-41ef-9eea-c358895e90ef" fill="#FFFFFF" transform="matrix(5.687204360961914,0,0,5.687204360961914,100.93474578857422,-3.3696682453155518)"><path d="M3.39 13.58L3.39 3.92L1.19 3.92L1.19 13.58ZM12.25 7.98C12.08 6.68 11.17 5.92 9.60 5.92C8.90 5.92 8.37 6.06 7.87 6.40L7.25 7.29L7.25 6.12L5.05 6.12L5.05 13.58L7.25 13.58L7.25 10.12C7.25 8.22 7.90 7.43 8.76 7.43C9.62 7.43 10.04 7.91 10.09 8.67C10.12 9.04 10.12 9.42 10.12 9.70L10.12 13.58L12.32 13.58L12.32 9.37C12.32 8.76 12.31 8.36 12.25 7.98ZM21.31 6.12L18.93 6.12L17.22 11.89L15.50 6.12L13.06 6.12L15.99 13.58L18.40 13.58ZM26.43 13.58L28.57 13.58C28.46 12.75 28.43 12.25 28.43 11.69L28.43 9.42C28.43 8.99 28.42 8.57 28.39 8.22C28.28 6.89 27.48 5.92 25.27 5.92C23.45 5.92 22.01 6.89 21.97 8.60L24.07 8.60C24.12 7.85 24.50 7.43 25.19 7.43C25.84 7.43 26.18 7.80 26.22 8.25C26.25 8.50 26.25 8.69 26.25 8.89L26.25 9.02L25.77 9.02C23.14 9.02 21.70 9.97 21.70 11.59C21.70 13.01 22.83 13.78 24.09 13.78C24.78 13.78 25.41 13.62 25.94 13.29L26.28 12.49ZM24.96 12.26C24.36 12.26 23.95 11.97 23.95 11.41C23.95 10.54 24.89 10.21 26.25 10.32L26.25 10.86C26.25 11.79 25.62 12.26 24.96 12.26ZM32.24 3.29L30.04 3.29L30.04 11.07C30.04 11.59 30.04 11.96 30.07 12.32C30.13 13.30 30.74 13.71 31.79 13.71C32.28 13.71 32.69 13.68 33.11 13.64L33.11 12.14C32.45 12.17 32.30 12.05 32.26 11.72C32.24 11.52 32.24 11.35 32.24 11.03ZM35.27 3.23C34.57 3.23 34.10 3.67 34.10 4.34C34.10 5.03 34.57 5.46 35.27 5.46C35.97 5.46 36.44 5.03 36.44 4.34C36.44 3.67 35.97 3.23 35.27 3.23ZM36.37 13.58L36.37 6.12L34.17 6.12L34.17 13.58ZM45.56 3.29L43.36 3.29L43.36 7.10L42.87 6.31C42.49 6.08 41.75 5.92 41.13 5.92C39.21 5.92 37.58 7.32 37.58 10.00C37.58 12.21 38.82 13.78 40.88 13.78C41.64 13.78 42.38 13.61 42.80 13.29L43.36 12.46L43.36 13.58L45.56 13.58ZM41.58 12.26C40.54 12.26 39.83 11.34 39.83 9.87C39.83 8.25 40.59 7.43 41.65 7.43C42.48 7.43 43.36 7.99 43.36 9.59L43.36 9.94C43.36 11.65 42.57 12.26 41.58 12.26ZM50.88 3.72C49 3.72 47.33 4.77 47.33 6.58C47.33 8.43 48.59 9.11 50.67 9.63C51.98 9.94 52.43 10.40 52.43 11.07C52.43 11.73 51.80 12.15 51.00 12.15C50.12 12.15 49.35 11.68 49.15 10.68L46.94 10.68C47.11 12.77 48.68 13.78 51.04 13.78C52.98 13.78 54.73 12.77 54.73 10.89C54.73 9.37 53.80 8.36 51.67 7.85C50.12 7.49 49.63 7.10 49.63 6.37C49.63 5.67 50.12 5.35 50.81 5.35C51.73 5.35 52.23 5.92 52.35 6.82L54.56 6.82C54.35 5.07 53.28 3.72 50.88 3.72ZM62.13 8.36C63.10 8.02 63.60 7.35 63.60 6.41C63.60 5.12 62.71 4.17 61.14 3.98C60.65 3.92 60.40 3.92 59.89 3.92L56.21 3.92L56.21 13.58L59.88 13.58C60.45 13.58 60.77 13.58 61.25 13.52C62.55 13.36 63.95 12.47 63.95 10.68C63.95 9.46 63.36 8.68 62.13 8.36ZM58.41 5.63L59.68 5.63C59.91 5.63 60.16 5.64 60.35 5.67C60.93 5.75 61.31 6.06 61.31 6.71C61.31 7.35 60.97 7.67 60.37 7.77C60.17 7.80 59.95 7.81 59.72 7.81L58.41 7.81ZM60.58 11.84C60.40 11.86 60.17 11.86 59.95 11.86L58.41 11.86L58.41 9.42L59.86 9.42C60.09 9.42 60.31 9.42 60.54 9.45C61.15 9.51 61.66 9.87 61.66 10.65C61.66 11.38 61.15 11.80 60.58 11.84Z"></path></g><!----><g data-v-423bf9ae="" id="07eead7a-4648-4c21-8f29-92cd16feed34" transform="matrix(1.1068068742752075,0,0,1.1068068742752075,-8.715641021728516,-6.709195137023926)" stroke="none" fill="#88DF95"><path d="M23.675 86.505l-.133-4.044-1.654-1.856H9.593a1.5 1.5 0 0 1 0-3h9.619l-1.739-1.95-.047-.056c-3.466-4.288-3.493-7.865-1.971-11.828l4.583-11.732c.478-1.131 1.528-3.057 3.069-4.129l7.783-5.315a44.604 44.604 0 0 1-1.629-1.567c-1.552-1.575-3.117-3.403-3.332-4.957a2.8 2.8 0 0 1-.027-.384c0-.121.005-.241.017-.358a1.49 1.49 0 0 1 .086-.78C32.919 16.879 38.1 7.91 47.756 6.64h.391c9.782 1.286 14.926 10.463 21.751 27.909a1.5 1.5 0 0 1 .086.777c.012.118.018.239.018.361 0 .132-.01.259-.027.381-.212 1.539-1.812 3.42-3.324 4.957a45.652 45.652 0 0 1-1.633 1.573l7.779 5.313c1.54 1.071 2.591 2.996 3.069 4.129l4.582 11.731c1.526 3.974 1.494 7.542-1.971 11.828l-.047.056-1.74 1.95h9.196a1.501 1.501 0 0 1 0 3H74.015l-1.656 1.857-.132 4.043a1.5 1.5 0 0 1-1.499 1.45H25.175a1.501 1.501 0 0 1-1.5-1.45zm45.601-1.55l.054-1.663H26.571l.055 1.663h42.65zm.152-4.663l.882-26.921c0-.533-.456-.99-1.015-.99H26.608c-.56 0-1.015.457-1.015.99l.88 26.921h42.955zm-25.363-3.599l-.258-2.893H41.84a1.351 1.351 0 0 1-1.351-1.349v-.481c0-.539.317-1.004.773-1.219a8.494 8.494 0 0 1-2.052-5.545c0-4.706 3.82-8.525 8.529-8.525 4.708 0 8.529 3.819 8.529 8.525a8.494 8.494 0 0 1-2.052 5.545c.455.215.771.68.771 1.219v.481a1.35 1.35 0 0 1-1.349 1.349h-1.966l-.259 2.893h-7.348zm3.03-4.653l.299-1.283a.552.552 0 0 0-1.073-.25l-.299 1.284a.551.551 0 0 0 1.073.249zm2.592-.249l-.299-1.284a.55.55 0 1 0-1.074.25l.299 1.283a.552.552 0 0 0 1.074-.249zm-2.893-5.252c0-.127-.008-.253-.026-.375-1.704-.096-3.307-.442-4.725-.984a2.571 2.571 0 1 0 4.751 1.359zm7.031 0a2.57 2.57 0 0 0-.389-1.359c-1.419.542-3.02.888-4.726.984a2.571 2.571 0 1 0 5.115.375zm-5.736-20.563l1.85-.413c1.663-.454 3.233-1.12 4.646-2.204l.738-.627a.554.554 0 0 0 .141-.188l.94-2.109a40.015 40.015 0 0 0 1.625-4.755l.562-2.329a.518.518 0 0 0-.291-.58l-.799-.392H38.403l-.8.392a.518.518 0 0 0-.291.58l.562 2.329a40.015 40.015 0 0 0 1.625 4.755l.94 2.109c.031.07.08.134.141.188l.723.614c1.429 1.097 2.998 1.763 4.642 2.212l1.869.418h.275zm.205-7.402l-.179-5.024 2.294 5.024h-2.115zm15.277-11.46l-15.4-15.386a.751.751 0 0 1 1.061-1.061l12.467 12.455c-4.09-8.224-7.734-12.091-12.55-13.25l-1.198-.22-1.186.218c-6.027 1.447-10.256 7.16-15.882 20.604a24.236 24.236 0 0 1 2.093-.757c3.901-1.219 9.196-1.951 14.976-1.951.953 0 1.894.02 2.818.059l-2.599-2.597a.751.751 0 0 1 1.061-1.061l3.796 3.793c.905.07 1.789.159 2.647.265l-7.504-7.497a.751.751 0 0 1 1.061-1.061l8.845 8.836a.766.766 0 0 1 .074.088 41.31 41.31 0 0 1 3.033.638L48.171 16.228a.751.751 0 0 1 1.061-1.061l14.893 14.878a.753.753 0 0 1 .092.114c.271.1.538.206.802.317a164.604 164.604 0 0 0-1.448-3.362z" font-family="Times New Roman" font-size="16"></path></g><!----></svg>